{"scene": 0, "scenes": [{"nodes": [0, 1, 2, 3, 4, 5, 6, 7, 8, 9, 10, 11, 12, 13, 14, 15, 16, 17, 18, 19, 20, 21, 22, 23, 24, 25, 26, 27, 28, 29, 30, 31, 32, 33, 34, 35, 36, 37, 38, 39, 40, 41, 42, 43, 44, 45, 46, 47, 48, 49, 50, 51, 52, 53, 54, 55, 56, 57, 58, 59, 60, 61, 62, 63, 64, 65, 66, 67, 68, 69, 70, 71, 72, 73, 74, 75, 76, 77, 78, 79, 80, 81, 82, 83, 84, 85, 86, 87, 88, 89, 90, 91, 92, 93, 94, 95, 96, 97, 98, 99, 100, 101, 102, 103, 104, 105, 106, 107, 108]}], "asset": {"version": "2.0", "generator": "https://github.com/mikedh/trimesh"}, "accessors": [{"componentType": 5125, "type": "SCALAR", "bufferView": 0, "count": 36, "max": [7], "min": [0]}, {"componentType": 5126, "type": "VEC3", "byteOffset": 0, "bufferView": 1, "count": 8, "max": [0.550000011920929, 0.014999999664723873, 0.2750000059604645], "min": [-0.550000011920929, -0.014999999664723873, -0.2750000059604645]}, {"componentType": 5126, "type": "VEC3", "byteOffset": 0, "bufferView": 2, "count": 8, "max": [0.019999999552965164, 0.38499999046325684, 0.019999999552965164], "min": [-0.019999999552965164, -0.38499999046325684, -0.019999999552965164]}, {"componentType": 5126, "type": "VEC3", "byteOffset": 0, "bufferView": 3, "count": 8, "max": [0.4699999988079071, 0.014999999664723873, 0.014999999664723873], "min": [-0.4699999988079071, -0.014999999664723873, -0.014999999664723873]}, {"componentType": 5126, "type": "VEC3", "byteOffset": 0, "bufferView": 4, "count": 8, "max": [0.05000000074505806, 0.017500000074505806, 0.14000000059604645], "min": [-0.05000000074505806, -0.017500000074505806, -0.14000000059604645]}, {"componentType": 5126, "type": "VEC3", "byteOffset": 0, "bufferView": 5, "count": 8, "max": [0.10999999940395355, 0.06499999761581421, 0.06499999761581421], "min": [-0.10999999940395355, -0.06499999761581421, -0.06499999761581421]}, {"componentType": 5126, "type": "VEC3", "byteOffset": 0, "bufferView": 6, "count": 8, "max": [0.23000000417232513, 0.02500000037252903, 0.0949999988079071], "min": [-0.23000000417232513, -0.02500000037252903, -0.0949999988079071]}, {"componentType": 5126, "type": "VEC3", "byteOffset": 0, "bufferView": 7, "count": 8, "max": [0.03500000014901161, 0.0020000000949949026, 0.02250000089406967], "min": [-0.03500000014901161, -0.0020000000949949026, -0.02250000089406967]}, {"componentType": 5126, "type": "VEC3", "byteOffset": 0, "bufferView": 8, "count": 8, "max": [0.03500000014901161, 0.0020000000949949026, 0.02500000037252903], "min": [-0.03500000014901161, -0.0020000000949949026, -0.02500000037252903]}, {"componentType": 5126, "type": "VEC3", "byteOffset": 0, "bufferView": 9, "count": 8, "max": [0.07500000298023224, 0.0949999988079071, 0.07000000029802322], "min": [-0.07500000298023224, -0.0949999988079071, -0.07000000029802322]}, {"componentType": 5126, "type": "VEC3", "byteOffset": 0, "bufferView": 10, "count": 8, "max": [0.19499999284744263, 0.04500000178813934, 0.07000000029802322], "min": [-0.19499999284744263, -0.04500000178813934, -0.07000000029802322]}, {"componentType": 5126, "type": "VEC3", "byteOffset": 0, "bufferView": 11, "count": 8, "max": [0.05999999865889549, 0.10750000178813934, 0.06499999761581421], "min": [-0.05999999865889549, -0.10750000178813934, -0.06499999761581421]}, {"componentType": 5126, "type": "VEC3", "byteOffset": 0, "bufferView": 12, "count": 8, "max": [0.02500000037252903, 0.11500000208616257, 0.054999999701976776], "min": [-0.02500000037252903, -0.11500000208616257, -0.054999999701976776]}, {"componentType": 5125, "type": "SCALAR", "bufferView": 13, "count": 480, "max": [81], "min": [0]}, {"componentType": 5126, "type": "VEC3", "byteOffset": 0, "bufferView": 14, "count": 82, "max": [0.054999999701976776, 0.054999999701976776, 0.054999999701976776], "min": [-0.054999999701976776, -0.054999999701976776, -0.054999999701976776]}, {"componentType": 5126, "type": "VEC3", "byteOffset": 0, "bufferView": 15, "count": 8, "max": [0.009999999776482582, 0.006000000052154064, 0.0020000000949949026], "min": [-0.009999999776482582, -0.006000000052154064, -0.0020000000949949026]}, {"componentType": 5126, "type": "VEC3", "byteOffset": 0, "bufferView": 16, "count": 82, "max": [0.07000000029802322, 0.07000000029802322, 0.014999999664723873], "min": [-0.07000000029802322, -0.07000000029802322, -0.014999999664723873]}, {"componentType": 5126, "type": "VEC3", "byteOffset": 0, "bufferView": 17, "count": 82, "max": [0.019999999552965164, 0.019999999552965164, 0.019999999552965164], "min": [-0.019999999552965164, -0.019999999552965164, -0.019999999552965164]}, {"componentType": 5126, "type": "VEC3", "byteOffset": 0, "bufferView": 18, "count": 82, "max": [0.029999999329447746, 0.029999999329447746, 0.014999999664723873], "min": [-0.029999999329447746, -0.029999999329447746, -0.014999999664723873]}, {"componentType": 5126, "type": "VEC3", "byteOffset": 0, "bufferView": 19, "count": 82, "max": [0.009999999776482582, 0.009999999776482582, 0.017999999225139618], "min": [-0.009999999776482582, -0.009999999776482582, -0.017999999225139618]}, {"componentType": 5126, "type": "VEC3", "byteOffset": 0, "bufferView": 20, "count": 8, "max": [0.054999999701976776, 0.004000000189989805, 0.006000000052154064], "min": [-0.054999999701976776, -0.004000000189989805, -0.006000000052154064]}, {"componentType": 5125, "type": "SCALAR", "bufferView": 21, "count": 6, "max": [3], "min": [0]}, {"componentType": 5126, "type": "VEC3", "byteOffset": 0, "bufferView": 22, "count": 4, "max": [0.06499999761581421, 0.017799999564886093, 0.0], "min": [-0.06499999761581421, -0.017799999564886093, 0.0]}, {"componentType": 5126, "type": "VEC2", "byteOffset": 0, "bufferView": 24, "count": 4, "max": [1.0, 1.0], "min": [0.0, 0.0]}, {"componentType": 5126, "type": "VEC3", "byteOffset": 0, "bufferView": 25, "count": 4, "max": [0.02500000037252903, 0.020999999716877937, 0.0], "min": [-0.02500000037252903, -0.020999999716877937, 0.0]}, {"componentType": 5126, "type": "VEC3", "byteOffset": 0, "bufferView": 27, "count": 4, "max": [0.026000000536441803, 0.011350000277161598, 0.0], "min": [-0.026000000536441803, -0.011350000277161598, 0.0]}, {"componentType": 5126, "type": "VEC3", "byteOffset": 0, "bufferView": 29, "count": 8, "max": [0.006000000052154064, 0.0949999988079071, 0.004999999888241291], "min": [-0.006000000052154064, -0.0949999988079071, -0.004999999888241291]}, {"componentType": 5126, "type": "VEC3", "byteOffset": 0, "bufferView": 30, "count": 82, "max": [0.004000000189989805, 0.004000000189989805, 0.014999999664723873], "min": [-0.004000000189989805, -0.004000000189989805, -0.014999999664723873]}, {"componentType": 5126, "type": "VEC3", "byteOffset": 0, "bufferView": 31, "count": 82, "max": [0.019999999552965164, 0.019999999552965164, 0.009999999776482582], "min": [-0.019999999552965164, -0.019999999552965164, -0.009999999776482582]}, {"componentType": 5126, "type": "VEC3", "byteOffset": 0, "bufferView": 32, "count": 82, "max": [0.00800000037997961, 0.00800000037997961, 0.013000000268220901], "min": [-0.00800000037997961, -0.00800000037997961, -0.013000000268220901]}, {"componentType": 5126, "type": "VEC3", "byteOffset": 0, "bufferView": 33, "count": 82, "max": [0.0012000000569969416, 0.0012000000569969416, 0.017999999225139618], "min": [-0.0012000000569969416, -0.0012000000569969416, -0.017999999225139618]}, {"componentType": 5126, "type": "VEC3", "byteOffset": 0, "bufferView": 34, "count": 82, "max": [0.004999999888241291, 0.004999999888241291, 0.014999999664723873], "min": [-0.004999999888241291, -0.004999999888241291, -0.014999999664723873]}, {"componentType": 5126, "type": "VEC3", "byteOffset": 0, "bufferView": 35, "count": 8, "max": [0.014999999664723873, 0.003000000026077032, 0.006000000052154064], "min": [-0.014999999664723873, -0.003000000026077032, -0.006000000052154064]}, {"componentType": 5126, "type": "VEC3", "byteOffset": 0, "bufferView": 36, "count": 82, "max": [0.00800000037997961, 0.00800000037997961, 0.17499999701976776], "min": [-0.00800000037997961, -0.00800000037997961, -0.17499999701976776]}, {"componentType": 5126, "type": "VEC3", "byteOffset": 0, "bufferView": 37, "count": 8, "max": [0.10000000149011612, 0.004999999888241291, 0.004999999888241291], "min": [-0.10000000149011612, -0.004999999888241291, -0.004999999888241291]}, {"componentType": 5126, "type": "VEC3", "byteOffset": 0, "bufferView": 38, "count": 82, "max": [0.006000000052154064, 0.006000000052154064, 0.04500000178813934], "min": [-0.006000000052154064, -0.006000000052154064, -0.04500000178813934]}, {"componentType": 5126, "type": "VEC3", "byteOffset": 0, "bufferView": 39, "count": 82, "max": [0.029999999329447746, 0.029999999329447746, 0.04500000178813934], "min": [-0.029999999329447746, -0.029999999329447746, -0.04500000178813934]}, {"componentType": 5126, "type": "VEC3", "byteOffset": 0, "bufferView": 40, "count": 82, "max": [0.014000000432133675, 0.014000000432133675, 0.001500000013038516], "min": [-0.014000000432133675, -0.014000000432133675, -0.001500000013038516]}, {"componentType": 5126, "type": "VEC3", "byteOffset": 0, "bufferView": 41, "count": 82, "max": [0.004000000189989805, 0.004000000189989805, 0.029999999329447746], "min": [-0.004000000189989805, -0.004000000189989805, -0.029999999329447746]}, {"componentType": 5126, "type": "VEC3", "byteOffset": 0, "bufferView": 42, "count": 82, "max": [0.02199999988079071, 0.02199999988079071, 0.02500000037252903], "min": [-0.02199999988079071, -0.02199999988079071, -0.02500000037252903]}, {"componentType": 5126, "type": "VEC3", "byteOffset": 0, "bufferView": 43, "count": 82, "max": [0.02500000037252903, 0.02500000037252903, 0.001500000013038516], "min": [-0.02500000037252903, -0.02500000037252903, -0.001500000013038516]}, {"componentType": 5126, "type": "VEC3", "byteOffset": 0, "bufferView": 44, "count": 8, "max": [0.02500000037252903, 0.006000000052154064, 0.014999999664723873], "min": [-0.02500000037252903, -0.006000000052154064, -0.014999999664723873]}, {"componentType": 5126, "type": "VEC3", "byteOffset": 0, "bufferView": 45, "count": 82, "max": [0.010999999940395355, 0.010999999940395355, 0.010999999940395355], "min": [-0.010999999940395355, -0.010999999940395355, -0.010999999940395355]}, {"componentType": 5126, "type": "VEC3", "byteOffset": 0, "bufferView": 46, "count": 82, "max": [0.013500000350177288, 0.013500000350177288, 0.006000000052154064], "min": [-0.013500000350177288, -0.013500000350177288, -0.006000000052154064]}, {"componentType": 5126, "type": "VEC3", "byteOffset": 0, "bufferView": 47, "count": 82, "max": [0.00800000037997961, 0.00800000037997961, 0.004000000189989805], "min": [-0.00800000037997961, -0.00800000037997961, -0.004000000189989805]}, {"componentType": 5126, "type": "VEC3", "byteOffset": 0, "bufferView": 48, "count": 8, "max": [0.003000000026077032, 0.05000000074505806, 0.0020000000949949026], "min": [-0.003000000026077032, -0.05000000074505806, -0.0020000000949949026]}, {"componentType": 5126, "type": "VEC3", "byteOffset": 0, "bufferView": 49, "count": 8, "max": [0.007000000216066837, 0.010999999940395355, 0.006000000052154064], "min": [-0.007000000216066837, -0.010999999940395355, -0.006000000052154064]}, {"componentType": 5126, "type": "VEC3", "byteOffset": 0, "bufferView": 50, "count": 82, "max": [0.012000000104308128, 0.012000000104308128, 0.009999999776482582], "min": [-0.012000000104308128, -0.012000000104308128, -0.009999999776482582]}, {"componentType": 5126, "type": "VEC3", "byteOffset": 0, "bufferView": 51, "count": 82, "max": [0.006000000052154064, 0.006000000052154064, 0.003000000026077032], "min": [-0.006000000052154064, -0.006000000052154064, -0.003000000026077032]}, {"componentType": 5126, "type": "VEC3", "byteOffset": 0, "bufferView": 52, "count": 82, "max": [0.035999998450279236, 0.035999998450279236, 0.0010000000474974513], "min": [-0.035999998450279236, -0.035999998450279236, -0.0010000000474974513]}, {"componentType": 5126, "type": "VEC3", "byteOffset": 0, "bufferView": 53, "count": 82, "max": [0.004999999888241291, 0.004999999888241291, 0.004000000189989805], "min": [-0.004999999888241291, -0.004999999888241291, -0.004000000189989805]}, {"componentType": 5126, "type": "VEC3", "byteOffset": 0, "bufferView": 54, "count": 8, "max": [0.003000000026077032, 0.0003000000142492354, 0.003000000026077032], "min": [-0.003000000026077032, -0.0003000000142492354, -0.003000000026077032]}, {"componentType": 5126, "type": "VEC3", "byteOffset": 0, "bufferView": 55, "count": 8, "max": [0.004000000189989805, 0.006000000052154064, 0.004000000189989805], "min": [-0.004000000189989805, -0.006000000052154064, -0.004000000189989805]}, {"componentType": 5126, "type": "VEC3", "byteOffset": 0, "bufferView": 56, "count": 8, "max": [0.004999999888241291, 0.001500000013038516, 0.001500000013038516], "min": [-0.004999999888241291, -0.001500000013038516, -0.001500000013038516]}, {"componentType": 5126, "type": "VEC3", "byteOffset": 0, "bufferView": 57, "count": 82, "max": [0.00800000037997961, 0.00800000037997961, 0.006000000052154064], "min": [-0.00800000037997961, -0.00800000037997961, -0.006000000052154064]}, {"componentType": 5126, "type": "VEC3", "byteOffset": 0, "bufferView": 58, "count": 8, "max": [0.017999999225139618, 0.0003000000142492354, 0.004000000189989805], "min": [-0.017999999225139618, -0.0003000000142492354, -0.004000000189989805]}, {"componentType": 5126, "type": "VEC3", "byteOffset": 0, "bufferView": 59, "count": 8, "max": [0.0012499999720603228, 0.0012499999720603228, 0.0024999999441206455], "min": [-0.0012499999720603228, -0.0012499999720603228, -0.0024999999441206455]}, {"componentType": 5126, "type": "VEC3", "byteOffset": 0, "bufferView": 60, "count": 82, "max": [0.05000000074505806, 0.05000000074505806, 0.0010000000474974513], "min": [-0.05000000074505806, -0.05000000074505806, -0.0010000000474974513]}, {"componentType": 5126, "type": "VEC3", "byteOffset": 0, "bufferView": 61, "count": 8, "max": [0.0010000000474974513, 0.006000000052154064, 0.004999999888241291], "min": [-0.0010000000474974513, -0.006000000052154064, -0.004999999888241291]}, {"componentType": 5126, "type": "VEC3", "byteOffset": 0, "bufferView": 62, "count": 82, "max": [0.009999999776482582, 0.009999999776482582, 0.054999999701976776], "min": [-0.009999999776482582, -0.009999999776482582, -0.054999999701976776]}, {"componentType": 5126, "type": "VEC3", "byteOffset": 0, "bufferView": 63, "count": 8, "max": [0.006000000052154064, 0.30000001192092896, 0.006000000052154064], "min": [-0.006000000052154064, -0.30000001192092896, -0.006000000052154064]}, {"componentType": 5126, "type": "VEC3", "byteOffset": 0, "bufferView": 64, "count": 82, "max": [0.006000000052154064, 0.006000000052154064, 0.014999999664723873], "min": [-0.006000000052154064, -0.006000000052154064, -0.014999999664723873]}, {"componentType": 5126, "type": "VEC3", "byteOffset": 0, "bufferView": 65, "count": 8, "max": [0.007000000216066837, 0.004000000189989805, 0.03500000014901161], "min": [-0.007000000216066837, -0.004000000189989805, -0.03500000014901161]}, {"componentType": 5126, "type": "VEC3", "byteOffset": 0, "bufferView": 66, "count": 82, "max": [0.008999999612569809, 0.008999999612569809, 0.006000000052154064], "min": [-0.008999999612569809, -0.008999999612569809, -0.006000000052154064]}, {"componentType": 5126, "type": "VEC3", "byteOffset": 0, "bufferView": 67, "count": 82, "max": [0.02199999988079071, 0.02199999988079071, 0.001500000013038516], "min": [-0.02199999988079071, -0.02199999988079071, -0.001500000013038516]}, {"componentType": 5126, "type": "VEC3", "byteOffset": 0, "bufferView": 68, "count": 82, "max": [0.01899999938905239, 0.01899999938905239, 0.0020000000949949026], "min": [-0.01899999938905239, -0.01899999938905239, -0.0020000000949949026]}, {"componentType": 5126, "type": "VEC3", "byteOffset": 0, "bufferView": 69, "count": 82, "max": [0.010999999940395355, 0.010999999940395355, 0.004999999888241291], "min": [-0.010999999940395355, -0.010999999940395355, -0.004999999888241291]}, {"componentType": 5126, "type": "VEC3", "byteOffset": 0, "bufferView": 70, "count": 82, "max": [0.014000000432133675, 0.014000000432133675, 0.0010000000474974513], "min": [-0.014000000432133675, -0.014000000432133675, -0.0010000000474974513]}, {"componentType": 5126, "type": "VEC3", "byteOffset": 0, "bufferView": 71, "count": 82, "max": [0.0035000001080334187, 0.0035000001080334187, 0.001500000013038516], "min": [-0.0035000001080334187, -0.0035000001080334187, -0.001500000013038516]}, {"componentType": 5126, "type": "VEC3", "byteOffset": 0, "bufferView": 72, "count": 82, "max": [0.003000000026077032, 0.003000000026077032, 0.00800000037997961], "min": [-0.003000000026077032, -0.003000000026077032, -0.00800000037997961]}, {"componentType": 5126, "type": "VEC3", "byteOffset": 0, "bufferView": 73, "count": 82, "max": [0.007000000216066837, 0.007000000216066837, 0.0010000000474974513], "min": [-0.007000000216066837, -0.007000000216066837, -0.0010000000474974513]}, {"componentType": 5125, "type": "SCALAR", "bufferView": 74, "count": 96, "max": [17], "min": [0]}, {"componentType": 5126, "type": "VEC3", "byteOffset": 0, "bufferView": 75, "count": 18, "max": [0.0007999999797903001, 0.0007999999797903001, 0.04472136124968529], "min": [-0.0007999999797903001, -0.0007999999797903001, -0.04472136124968529]}, {"componentType": 5126, "type": "VEC3", "byteOffset": 0, "bufferView": 76, "count": 18, "max": [0.0007999999797903001, 0.0007999999797903001, 0.04555216804146767], "min": [-0.0007999999797903001, -0.0007999999797903001, -0.04555216804146767]}, {"componentType": 5126, "type": "VEC3", "byteOffset": 0, "bufferView": 77, "count": 18, "max": [0.0007999999797903001, 0.0007999999797903001, 0.05772564560174942], "min": [-0.0007999999797903001, -0.0007999999797903001, -0.05772564560174942]}, {"componentType": 5126, "type": "VEC3", "byteOffset": 0, "bufferView": 78, "count": 18, "max": [0.0007999999797903001, 0.0007999999797903001, 0.06314665824174881], "min": [-0.0007999999797903001, -0.0007999999797903001, -0.06314665824174881]}, {"componentType": 5126, "type": "VEC3", "byteOffset": 0, "bufferView": 79, "count": 18, "max": [0.0007999999797903001, 0.0007999999797903001, 0.0502493791282177], "min": [-0.0007999999797903001, -0.0007999999797903001, -0.0502493791282177]}, {"componentType": 5126, "type": "VEC3", "byteOffset": 0, "bufferView": 80, "count": 18, "max": [0.0007999999797903001, 0.0007999999797903001, 0.07075485587120056], "min": [-0.0007999999797903001, -0.0007999999797903001, -0.07075485587120056]}, {"componentType": 5126, "type": "VEC3", "byteOffset": 0, "bufferView": 81, "count": 18, "max": [0.0007999999797903001, 0.0007999999797903001, 0.016093477606773376], "min": [-0.0007999999797903001, -0.0007999999797903001, -0.016093477606773376]}, {"componentType": 5126, "type": "VEC3", "byteOffset": 0, "bufferView": 82, "count": 18, "max": [0.0007999999797903001, 0.0007999999797903001, 0.039812058210372925], "min": [-0.0007999999797903001, -0.0007999999797903001, -0.039812058210372925]}], "meshes": [{"name": "table_top", "extras": {"shape": "box", "extents": [1.1, 0.03, 0.55]}, "primitives": [{"attributes": {"POSITION": 1}, "indices": 0, "mode": 4, "material": 0}]}, {"name": "leg_0", "extras": {"shape": "box", "extents": [0.04, 0.77, 0.04]}, "primitives": [{"attributes": {"POSITION": 2}, "indices": 0, "mode": 4, "material": 1}]}, {"name": "leg_1", "extras": {"shape": "box", "extents": [0.04, 0.77, 0.04]}, "primitives": [{"attributes": {"POSITION": 2}, "indices": 0, "mode": 4, "material": 1}]}, {"name": "leg_2", "extras": {"shape": "box", "extents": [0.04, 0.77, 0.04]}, "primitives": [{"attributes": {"POSITION": 2}, "indices": 0, "mode": 4, "material": 1}]}, {"name": "leg_3", "extras": {"shape": "box", "extents": [0.04, 0.77, 0.04]}, "primitives": [{"attributes": {"POSITION": 2}, "indices": 0, "mode": 4, "material": 1}]}, {"name": "cross_bar_back", "extras": {"shape": "box", "extents": [0.94, 0.03, 0.03]}, "primitives": [{"attributes": {"POSITION": 3}, "indices": 0, "mode": 4, "material": 1}]}, {"name": "cross_bar_front", "extras": {"shape": "box", "extents": [0.94, 0.03, 0.03]}, "primitives": [{"attributes": {"POSITION": 3}, "indices": 0, "mode": 4, "material": 1}]}, {"name": "foot_pedal", "extras": {"shape": "box", "extents": [0.1, 0.035, 0.28]}, "primitives": [{"attributes": {"POSITION": 4}, "indices": 0, "mode": 4, "material": 2}]}, {"name": "motor", "extras": {"shape": "box", "extents": [0.22, 0.13, 0.13]}, "primitives": [{"attributes": {"POSITION": 5}, "indices": 0, "mode": 4, "material": 2}]}, {"name": "bed", "extras": {"shape": "box", "extents": [0.46, 0.05, 0.19]}, "primitives": [{"attributes": {"POSITION": 6}, "indices": 0, "mode": 4, "material": 3}]}, {"name": "needle_plate", "extras": {"shape": "box", "extents": [0.07, 0.004, 0.045]}, "primitives": [{"attributes": {"POSITION": 7}, "indices": 0, "mode": 4, "material": 4}]}, {"name": "slide_plate", "extras": {"shape": "box", "extents": [0.07, 0.004, 0.05]}, "primitives": [{"attributes": {"POSITION": 8}, "indices": 0, "mode": 4, "material": 4}]}, {"name": "pillar", "extras": {"shape": "box", "extents": [0.15, 0.19, 0.14]}, "primitives": [{"attributes": {"POSITION": 9}, "indices": 0, "mode": 4, "material": 3}]}, {"name": "arm", "extras": {"shape": "box", "extents": [0.39, 0.09, 0.14]}, "primitives": [{"attributes": {"POSITION": 10}, "indices": 0, "mode": 4, "material": 3}]}, {"name": "head", "extras": {"shape": "box", "extents": [0.12, 0.215, 0.13]}, "primitives": [{"attributes": {"POSITION": 11}, "indices": 0, "mode": 4, "material": 3}]}, {"name": "side_cover", "extras": {"shape": "box", "extents": [0.05, 0.23, 0.11]}, "primitives": [{"attributes": {"POSITION": 12}, "indices": 0, "mode": 4, "material": 5}]}, {"name": "side_cover_top", "extras": {"shape": "cylinder", "height": 0.11, "radius": 0.055, "processed": true}, "primitives": [{"attributes": {"POSITION": 14}, "indices": 13, "mode": 4, "material": 5}]}, {"name": "cover_slot", "extras": {"shape": "box", "extents": [0.02, 0.012, 0.004]}, "primitives": [{"attributes": {"POSITION": 15}, "indices": 0, "mode": 4, "material": 2}]}, {"name": "handwheel", "extras": {"shape": "cylinder", "height": 0.03, "radius": 0.07, "processed": true}, "primitives": [{"attributes": {"POSITION": 16}, "indices": 13, "mode": 4, "material": 1}]}, {"name": "handwheel_hub", "extras": {"shape": "cylinder", "height": 0.04, "radius": 0.02, "processed": true}, "primitives": [{"attributes": {"POSITION": 17}, "indices": 13, "mode": 4, "material": 4}]}, {"name": "stitch_dial", "extras": {"shape": "cylinder", "height": 0.03, "radius": 0.03, "processed": true}, "primitives": [{"attributes": {"POSITION": 18}, "indices": 13, "mode": 4, "material": 5}]}, {"name": "stitch_dial_cap", "extras": {"shape": "cylinder", "height": 0.036, "radius": 0.01, "processed": true}, "primitives": [{"attributes": {"POSITION": 19}, "indices": 13, "mode": 4, "material": 4}]}, {"name": "reverse_lever", "extras": {"shape": "box", "extents": [0.11, 0.008, 0.012]}, "primitives": [{"attributes": {"POSITION": 20}, "indices": 0, "mode": 4, "material": 5}]}, {"name": "nameplate", "extras": {}, "primitives": [{"attributes": {"POSITION": 22, "TEXCOORD_0": 23}, "indices": 21, "mode": 4, "material": 6}]}, {"name": "warning_label", "extras": {}, "primitives": [{"attributes": {"POSITION": 24, "TEXCOORD_0": 23}, "indices": 21, "mode": 4, "material": 7}]}, {"name": "model_plate", "extras": {}, "primitives": [{"attributes": {"POSITION": 25, "TEXCOORD_0": 23}, "indices": 21, "mode": 4, "material": 8}]}, {"name": "take_up_cover", "extras": {"shape": "box", "extents": [0.012, 0.19, 0.01]}, "primitives": [{"attributes": {"POSITION": 26}, "indices": 0, "mode": 4, "material": 5}]}, {"name": "thread_lever", "extras": {"shape": "cylinder", "height": 0.03, "radius": 0.004, "processed": true}, "primitives": [{"attributes": {"POSITION": 27}, "indices": 13, "mode": 4, "material": 4}]}, {"name": "tension_dial", "extras": {"shape": "cylinder", "height": 0.02, "radius": 0.02, "processed": true}, "primitives": [{"attributes": {"POSITION": 28}, "indices": 13, "mode": 4, "material": 5}]}, {"name": "tension_dial_cap", "extras": {"shape": "cylinder", "height": 0.026, "radius": 0.008, "processed": true}, "primitives": [{"attributes": {"POSITION": 29}, "indices": 13, "mode": 4, "material": 4}]}, {"name": "needle_bar", "extras": {"shape": "cylinder", "height": 0.03, "radius": 0.004, "processed": true}, "primitives": [{"attributes": {"POSITION": 27}, "indices": 13, "mode": 4, "material": 4}]}, {"name": "needle", "extras": {"shape": "cylinder", "height": 0.036, "radius": 0.0012, "processed": true}, "primitives": [{"attributes": {"POSITION": 30}, "indices": 13, "mode": 4, "material": 4}]}, {"name": "presser_bar", "extras": {"shape": "cylinder", "height": 0.03, "radius": 0.005, "processed": true}, "primitives": [{"attributes": {"POSITION": 31}, "indices": 13, "mode": 4, "material": 4}]}, {"name": "presser_foot", "extras": {"shape": "box", "extents": [0.03, 0.006, 0.012]}, "primitives": [{"attributes": {"POSITION": 32}, "indices": 0, "mode": 4, "material": 4}]}, {"name": "stand_pole", "extras": {"shape": "cylinder", "height": 0.35, "radius": 0.008, "processed": true}, "primitives": [{"attributes": {"POSITION": 33}, "indices": 13, "mode": 4, "material": 4}]}, {"name": "stand_bar", "extras": {"shape": "box", "extents": [0.2, 0.01, 0.01]}, "primitives": [{"attributes": {"POSITION": 34}, "indices": 0, "mode": 4, "material": 4}]}, {"name": "spool_pin_0", "extras": {"shape": "cylinder", "height": 0.09, "radius": 0.006, "processed": true}, "primitives": [{"attributes": {"POSITION": 35}, "indices": 13, "mode": 4, "material": 4}]}, {"name": "thread_spool_0", "extras": {"shape": "cylinder", "height": 0.09, "radius": 0.03, "processed": true}, "primitives": [{"attributes": {"POSITION": 36}, "indices": 13, "mode": 4, "material": 9}]}, {"name": "spool_pin_1", "extras": {"shape": "cylinder", "height": 0.09, "radius": 0.006, "processed": true}, "primitives": [{"attributes": {"POSITION": 35}, "indices": 13, "mode": 4, "material": 4}]}, {"name": "thread_spool_1", "extras": {"shape": "cylinder", "height": 0.09, "radius": 0.03, "processed": true}, "primitives": [{"attributes": {"POSITION": 36}, "indices": 13, "mode": 4, "material": 2}]}, {"name": "spool_pad", "extras": {"shape": "cylinder", "height": 0.003, "radius": 0.014, "processed": true}, "primitives": [{"attributes": {"POSITION": 37}, "indices": 13, "mode": 4, "material": 1}]}, {"name": "spool_pin_top", "extras": {"shape": "cylinder", "height": 0.06, "radius": 0.004, "processed": true}, "primitives": [{"attributes": {"POSITION": 38}, "indices": 13, "mode": 4, "material": 4}]}, {"name": "thread_spool_top", "extras": {"shape": "cylinder", "height": 0.05, "radius": 0.022, "processed": true}, "primitives": [{"attributes": {"POSITION": 39}, "indices": 13, "mode": 4, "material": 9}]}, {"name": "thread_spool_top_flange_a", "extras": {"shape": "cylinder", "height": 0.003, "radius": 0.025, "processed": true}, "primitives": [{"attributes": {"POSITION": 40}, "indices": 13, "mode": 4, "material": 4}]}, {"name": "thread_spool_top_flange_b", "extras": {"shape": "cylinder", "height": 0.003, "radius": 0.025, "processed": true}, "primitives": [{"attributes": {"POSITION": 40}, "indices": 13, "mode": 4, "material": 4}]}, {"name": "bwinder_base", "extras": {"shape": "box", "extents": [0.05, 0.012, 0.03]}, "primitives": [{"attributes": {"POSITION": 41}, "indices": 0, "mode": 4, "material": 5}]}, {"name": "bwinder_spindle", "extras": {"shape": "cylinder", "height": 0.03, "radius": 0.004, "processed": true}, "primitives": [{"attributes": {"POSITION": 27}, "indices": 13, "mode": 4, "material": 4}]}, {"name": "bwinder_bobbin", "extras": {"shape": "cylinder", "height": 0.022, "radius": 0.011, "processed": true}, "primitives": [{"attributes": {"POSITION": 42}, "indices": 13, "mode": 4, "material": 4}]}, {"name": "bwinder_thread", "extras": {"shape": "cylinder", "height": 0.012, "radius": 0.0135, "processed": true}, "primitives": [{"attributes": {"POSITION": 43}, "indices": 13, "mode": 4, "material": 9}]}, {"name": "bwinder_tire", "extras": {"shape": "cylinder", "height": 0.008, "radius": 0.008, "processed": true}, "primitives": [{"attributes": {"POSITION": 44}, "indices": 13, "mode": 4, "material": 2}]}, {"name": "takeup_slot", "extras": {"shape": "box", "extents": [0.006, 0.1, 0.004]}, "primitives": [{"attributes": {"POSITION": 45}, "indices": 0, "mode": 4, "material": 2}]}, {"name": "takeup_lever", "extras": {"shape": "box", "extents": [0.014, 0.022, 0.012]}, "primitives": [{"attributes": {"POSITION": 46}, "indices": 0, "mode": 4, "material": 4}]}, {"name": "tension_pre_knob", "extras": {"shape": "cylinder", "height": 0.02, "radius": 0.012, "processed": true}, "primitives": [{"attributes": {"POSITION": 47}, "indices": 13, "mode": 4, "material": 5}]}, {"name": "tension_pre_cap", "extras": {"shape": "cylinder", "height": 0.006, "radius": 0.006, "processed": true}, "primitives": [{"attributes": {"POSITION": 48}, "indices": 13, "mode": 4, "material": 4}]}, {"name": "stitch_scale", "extras": {"shape": "cylinder", "height": 0.002, "radius": 0.036, "processed": true}, "primitives": [{"attributes": {"POSITION": 49}, "indices": 13, "mode": 4, "material": 2}]}, {"name": "needle_clamp", "extras": {"shape": "cylinder", "height": 0.008, "radius": 0.005, "processed": true}, "primitives": [{"attributes": {"POSITION": 50}, "indices": 13, "mode": 4, "material": 4}]}, {"name": "needle_hole", "extras": {"shape": "box", "extents": [0.006, 0.0006, 0.006]}, "primitives": [{"attributes": {"POSITION": 51}, "indices": 0, "mode": 4, "material": 2}]}, {"name": "presser_ankle", "extras": {"shape": "box", "extents": [0.008, 0.012, 0.008]}, "primitives": [{"attributes": {"POSITION": 52}, "indices": 0, "mode": 4, "material": 4}]}, {"name": "presser_toe_a", "extras": {"shape": "box", "extents": [0.01, 0.003, 0.003]}, "primitives": [{"attributes": {"POSITION": 53}, "indices": 0, "mode": 4, "material": 4}]}, {"name": "presser_toe_b", "extras": {"shape": "box", "extents": [0.01, 0.003, 0.003]}, "primitives": [{"attributes": {"POSITION": 53}, "indices": 0, "mode": 4, "material": 4}]}, {"name": "presser_screw", "extras": {"shape": "cylinder", "height": 0.012, "radius": 0.008, "processed": true}, "primitives": [{"attributes": {"POSITION": 54}, "indices": 13, "mode": 4, "material": 5}]}, {"name": "feeddog_slot_a", "extras": {"shape": "box", "extents": [0.036, 0.0006, 0.008]}, "primitives": [{"attributes": {"POSITION": 55}, "indices": 0, "mode": 4, "material": 2}]}, {"name": "feeddog_slot_b", "extras": {"shape": "box", "extents": [0.036, 0.0006, 0.008]}, "primitives": [{"attributes": {"POSITION": 55}, "indices": 0, "mode": 4, "material": 2}]}, {"name": "feeddog_tooth_00", "extras": {"shape": "box", "extents": [0.0025, 0.0025, 0.005]}, "primitives": [{"attributes": {"POSITION": 56}, "indices": 0, "mode": 4, "material": 4}]}, {"name": "feeddog_tooth_01", "extras": {"shape": "box", "extents": [0.0025, 0.0025, 0.005]}, "primitives": [{"attributes": {"POSITION": 56}, "indices": 0, "mode": 4, "material": 4}]}, {"name": "feeddog_tooth_02", "extras": {"shape": "box", "extents": [0.0025, 0.0025, 0.005]}, "primitives": [{"attributes": {"POSITION": 56}, "indices": 0, "mode": 4, "material": 4}]}, {"name": "feeddog_tooth_03", "extras": {"shape": "box", "extents": [0.0025, 0.0025, 0.005]}, "primitives": [{"attributes": {"POSITION": 56}, "indices": 0, "mode": 4, "material": 4}]}, {"name": "feeddog_tooth_04", "extras": {"shape": "box", "extents": [0.0025, 0.0025, 0.005]}, "primitives": [{"attributes": {"POSITION": 56}, "indices": 0, "mode": 4, "material": 4}]}, {"name": "feeddog_tooth_10", "extras": {"shape": "box", "extents": [0.0025, 0.0025, 0.005]}, "primitives": [{"attributes": {"POSITION": 56}, "indices": 0, "mode": 4, "material": 4}]}, {"name": "feeddog_tooth_11", "extras": {"shape": "box", "extents": [0.0025, 0.0025, 0.005]}, "primitives": [{"attributes": {"POSITION": 56}, "indices": 0, "mode": 4, "material": 4}]}, {"name": "feeddog_tooth_12", "extras": {"shape": "box", "extents": [0.0025, 0.0025, 0.005]}, "primitives": [{"attributes": {"POSITION": 56}, "indices": 0, "mode": 4, "material": 4}]}, {"name": "feeddog_tooth_13", "extras": {"shape": "box", "extents": [0.0025, 0.0025, 0.005]}, "primitives": [{"attributes": {"POSITION": 56}, "indices": 0, "mode": 4, "material": 4}]}, {"name": "feeddog_tooth_14", "extras": {"shape": "box", "extents": [0.0025, 0.0025, 0.005]}, "primitives": [{"attributes": {"POSITION": 56}, "indices": 0, "mode": 4, "material": 4}]}, {"name": "handwheel_recess", "extras": {"shape": "cylinder", "height": 0.002, "radius": 0.05, "processed": true}, "primitives": [{"attributes": {"POSITION": 57}, "indices": 13, "mode": 4, "material": 2}]}, {"name": "handwheel_mark", "extras": {"shape": "box", "extents": [0.002, 0.012, 0.01]}, "primitives": [{"attributes": {"POSITION": 58}, "indices": 0, "mode": 4, "material": 10}]}, {"name": "pedal_hinge", "extras": {"shape": "cylinder", "height": 0.11, "radius": 0.01, "processed": true}, "primitives": [{"attributes": {"POSITION": 59}, "indices": 13, "mode": 4, "material": 4}]}, {"name": "pedal_rod", "extras": {"shape": "box", "extents": [0.012, 0.6, 0.012]}, "primitives": [{"attributes": {"POSITION": 60}, "indices": 0, "mode": 4, "material": 1}]}, {"name": "lifter_pivot", "extras": {"shape": "cylinder", "height": 0.03, "radius": 0.006, "processed": true}, "primitives": [{"attributes": {"POSITION": 61}, "indices": 13, "mode": 4, "material": 4}]}, {"name": "lifter_lever", "extras": {"shape": "box", "extents": [0.014, 0.008, 0.07]}, "primitives": [{"attributes": {"POSITION": 62}, "indices": 0, "mode": 4, "material": 5}]}, {"name": "lifter_knob", "extras": {"shape": "cylinder", "height": 0.012, "radius": 0.009, "processed": true}, "primitives": [{"attributes": {"POSITION": 63}, "indices": 13, "mode": 4, "material": 2}]}, {"name": "bobbin_race", "extras": {"shape": "cylinder", "height": 0.003, "radius": 0.022, "processed": true}, "primitives": [{"attributes": {"POSITION": 64}, "indices": 13, "mode": 4, "material": 1}]}, {"name": "bobbin_case", "extras": {"shape": "cylinder", "height": 0.004, "radius": 0.019, "processed": true}, "primitives": [{"attributes": {"POSITION": 65}, "indices": 13, "mode": 4, "material": 4}]}, {"name": "bobbin_thread", "extras": {"shape": "cylinder", "height": 0.01, "radius": 0.011, "processed": true}, "primitives": [{"attributes": {"POSITION": 66}, "indices": 13, "mode": 4, "material": 9}]}, {"name": "bobbin_spool_flange_a", "extras": {"shape": "cylinder", "height": 0.002, "radius": 0.014, "processed": true}, "primitives": [{"attributes": {"POSITION": 67}, "indices": 13, "mode": 4, "material": 4}]}, {"name": "bobbin_spool_flange_b", "extras": {"shape": "cylinder", "height": 0.002, "radius": 0.014, "processed": true}, "primitives": [{"attributes": {"POSITION": 67}, "indices": 13, "mode": 4, "material": 4}]}, {"name": "screw_0", "extras": {"shape": "cylinder", "height": 0.003, "radius": 0.0035, "processed": true}, "primitives": [{"attributes": {"POSITION": 68}, "indices": 13, "mode": 4, "material": 4}]}, {"name": "screw_1", "extras": {"shape": "cylinder", "height": 0.003, "radius": 0.0035, "processed": true}, "primitives": [{"attributes": {"POSITION": 68}, "indices": 13, "mode": 4, "material": 4}]}, {"name": "screw_2", "extras": {"shape": "cylinder", "height": 0.003, "radius": 0.0035, "processed": true}, "primitives": [{"attributes": {"POSITION": 68}, "indices": 13, "mode": 4, "material": 4}]}, {"name": "screw_3", "extras": {"shape": "cylinder", "height": 0.003, "radius": 0.0035, "processed": true}, "primitives": [{"attributes": {"POSITION": 68}, "indices": 13, "mode": 4, "material": 4}]}, {"name": "screw_4", "extras": {"shape": "cylinder", "height": 0.003, "radius": 0.0035, "processed": true}, "primitives": [{"attributes": {"POSITION": 68}, "indices": 13, "mode": 4, "material": 4}]}, {"name": "screw_5", "extras": {"shape": "cylinder", "height": 0.003, "radius": 0.0035, "processed": true}, "primitives": [{"attributes": {"POSITION": 68}, "indices": 13, "mode": 4, "material": 4}]}, {"name": "screw_6", "extras": {"shape": "cylinder", "height": 0.003, "radius": 0.0035, "processed": true}, "primitives": [{"attributes": {"POSITION": 68}, "indices": 13, "mode": 4, "material": 4}]}, {"name": "screw_7", "extras": {"shape": "cylinder", "height": 0.003, "radius": 0.0035, "processed": true}, "primitives": [{"attributes": {"POSITION": 68}, "indices": 13, "mode": 4, "material": 4}]}, {"name": "guide_post_0", "extras": {"shape": "cylinder", "height": 0.016, "radius": 0.003, "processed": true}, "primitives": [{"attributes": {"POSITION": 69}, "indices": 13, "mode": 4, "material": 4}]}, {"name": "guide_disc_0", "extras": {"shape": "cylinder", "height": 0.002, "radius": 0.007, "processed": true}, "primitives": [{"attributes": {"POSITION": 70}, "indices": 13, "mode": 4, "material": 4}]}, {"name": "guide_post_1", "extras": {"shape": "cylinder", "height": 0.016, "radius": 0.003, "processed": true}, "primitives": [{"attributes": {"POSITION": 69}, "indices": 13, "mode": 4, "material": 4}]}, {"name": "guide_disc_1", "extras": {"shape": "cylinder", "height": 0.002, "radius": 0.007, "processed": true}, "primitives": [{"attributes": {"POSITION": 70}, "indices": 13, "mode": 4, "material": 4}]}, {"name": "guide_post_2", "extras": {"shape": "cylinder", "height": 0.016, "radius": 0.003, "processed": true}, "primitives": [{"attributes": {"POSITION": 69}, "indices": 13, "mode": 4, "material": 4}]}, {"name": "guide_disc_2", "extras": {"shape": "cylinder", "height": 0.002, "radius": 0.007, "processed": true}, "primitives": [{"attributes": {"POSITION": 70}, "indices": 13, "mode": 4, "material": 4}]}, {"name": "guide_post_3", "extras": {"shape": "cylinder", "height": 0.016, "radius": 0.003, "processed": true}, "primitives": [{"attributes": {"POSITION": 69}, "indices": 13, "mode": 4, "material": 4}]}, {"name": "guide_disc_3", "extras": {"shape": "cylinder", "height": 0.002, "radius": 0.007, "processed": true}, "primitives": [{"attributes": {"POSITION": 70}, "indices": 13, "mode": 4, "material": 4}]}, {"name": "thread_seg_0", "extras": {"shape": "cylinder", "height": 0.0894427190999915, "radius": 0.0008, "processed": true}, "primitives": [{"attributes": {"POSITION": 72}, "indices": 71, "mode": 4, "material": 9}]}, {"name": "thread_seg_1", "extras": {"shape": "cylinder", "height": 0.09110433579144298, "radius": 0.0008, "processed": true}, "primitives": [{"attributes": {"POSITION": 73}, "indices": 71, "mode": 4, "material": 9}]}, {"name": "thread_seg_2", "extras": {"shape": "cylinder", "height": 0.1154512884293632, "radius": 0.0008, "processed": true}, "primitives": [{"attributes": {"POSITION": 74}, "indices": 71, "mode": 4, "material": 9}]}, {"name": "thread_seg_3", "extras": {"shape": "cylinder", "height": 0.12629330940315078, "radius": 0.0008, "processed": true}, "primitives": [{"attributes": {"POSITION": 75}, "indices": 71, "mode": 4, "material": 9}]}, {"name": "thread_seg_4", "extras": {"shape": "cylinder", "height": 0.10049875621120886, "radius": 0.0008, "processed": true}, "primitives": [{"attributes": {"POSITION": 76}, "indices": 71, "mode": 4, "material": 9}]}, {"name": "thread_seg_5", "extras": {"shape": "cylinder", "height": 0.14150971698084905, "radius": 0.0008, "processed": true}, "primitives": [{"attributes": {"POSITION": 77}, "indices": 71, "mode": 4, "material": 9}]}, {"name": "thread_seg_6", "extras": {"shape": "cylinder", "height": 0.03218695387886219, "radius": 0.0008, "processed": true}, "primitives": [{"attributes": {"POSITION": 78}, "indices": 71, "mode": 4, "material": 9}]}, {"name": "thread_seg_7", "extras": {"shape": "cylinder", "height": 0.0796241169495775, "radius": 0.0008, "processed": true}, "primitives": [{"attributes": {"POSITION": 79}, "indices": 71, "mode": 4, "material": 9}]}], "images": [{"bufferView": 23, "mimeType": "image/png"}, {"bufferView": 26, "mimeType": "image/png"}, {"bufferView": 28, "mimeType": "image/png"}], "textures": [{"source": 0}, {"source": 1}, {"source": 2}], "materials": [{"pbrMetallicRoughness": {"baseColorFactor": [0.8392156862745098, 0.8705882352941177, 0.8941176470588236, 1.0], "roughnessFactor": 0.6, "metallicFactor": 0.0}, "doubleSided": false}, {"pbrMetallicRoughness": {"baseColorFactor": [0.35294117647058826, 0.3607843137254902, 0.3764705882352941, 1.0], "roughnessFactor": 0.5, "metallicFactor": 0.5}, "doubleSided": false}, {"pbrMetallicRoughness": {"baseColorFactor": [0.10980392156862745, 0.10980392156862745, 0.11764705882352941, 1.0], "roughnessFactor": 0.6, "metallicFactor": 0.3}, "doubleSided": false}, {"pbrMetallicRoughness": {"baseColorFactor": [0.9254901960784314, 0.9176470588235294, 0.8862745098039215, 1.0], "roughnessFactor": 0.45, "metallicFactor": 0.05}, "doubleSided": false}, {"pbrMetallicRoughness": {"baseColorFactor": [0.803921568627451, 0.8156862745098039, 0.8313725490196079, 1.0], "roughnessFactor": 0.25, "metallicFactor": 0.9}, "doubleSided": false}, {"pbrMetallicRoughness": {"baseColorFactor": [0.6980392156862745, 0.7058823529411765, 0.7137254901960784, 1.0], "roughnessFactor": 0.5, "metallicFactor": 0.2}, "doubleSided": false}, {"pbrMetallicRoughness": {"baseColorTexture": {"index": 0}, "roughnessFactor": 0.5, "metallicFactor": 0.0}, "doubleSided": true}, {"pbrMetallicRoughness": {"baseColorTexture": {"index": 1}, "roughnessFactor": 0.5, "metallicFactor": 0.0}, "doubleSided": true}, {"pbrMetallicRoughness": {"baseColorTexture": {"index": 2}, "roughnessFactor": 0.5, "metallicFactor": 0.0}, "doubleSided": true}, {"pbrMetallicRoughness": {"baseColorFactor": [0.7450980392156863, 0.1568627450980392, 0.13725490196078433, 1.0], "roughnessFactor": 0.8, "metallicFactor": 0.0}, "doubleSided": false}, {"pbrMetallicRoughness": {"baseColorFactor": [0.9411764705882353, 0.7843137254901961, 0.11764705882352941, 1.0], "roughnessFactor": 0.6, "metallicFactor": 0.0}, "doubleSided": false}], "nodes": [{"name": "table_top", "mesh": 0, "matrix": [1.0, 0.0, 0.0, 0.0, 0.0, 1.0, 0.0, 0.0, 0.0, 0.0, 1.0, 0.0, 0.0, 0.785, 0.02, 1.0]}, {"name": "leg_0", "mesh": 1, "matrix": [1.0, 0.0, 0.0, 0.0, 0.0, 1.0, 0.0, 0.0, 0.0, 0.0, 1.0, 0.0, -0.47, 0.385, -0.2, 1.0]}, {"name": "leg_1", "mesh": 2, "matrix": [1.0, 0.0, 0.0, 0.0, 0.0, 1.0, 0.0, 0.0, 0.0, 0.0, 1.0, 0.0, 0.47, 0.385, -0.2, 1.0]}, {"name": "leg_2", "mesh": 3, "matrix": [1.0, 0.0, 0.0, 0.0, 0.0, 1.0, 0.0, 0.0, 0.0, 0.0, 1.0, 0.0, -0.47, 0.385, 0.2, 1.0]}, {"name": "leg_3", "mesh": 4, "matrix": [1.0, 0.0, 0.0, 0.0, 0.0, 1.0, 0.0, 0.0, 0.0, 0.0, 1.0, 0.0, 0.47, 0.385, 0.2, 1.0]}, {"name": "cross_bar_back", "mesh": 5, "matrix": [1.0, 0.0, 0.0, 0.0, 0.0, 1.0, 0.0, 0.0, 0.0, 0.0, 1.0, 0.0, 0.0, 0.12, -0.2, 1.0]}, {"name": "cross_bar_front", "mesh": 6, "matrix": [1.0, 0.0, 0.0, 0.0, 0.0, 1.0, 0.0, 0.0, 0.0, 0.0, 1.0, 0.0, 0.0, 0.12, 0.2, 1.0]}, {"name": "foot_pedal", "mesh": 7, "matrix": [1.0, 0.0, 0.0, 0.0, 0.0, 1.0, 0.0, 0.0, 0.0, 0.0, 1.0, 0.0, 0.1, 0.03, 0.05, 1.0]}, {"name": "motor", "mesh": 8, "matrix": [1.0, 0.0, 0.0, 0.0, 0.0, 1.0, 0.0, 0.0, 0.0, 0.0, 1.0, 0.0, 0.15, 0.66, -0.12, 1.0]}, {"name": "bed", "mesh": 9, "matrix": [1.0, 0.0, 0.0, 0.0, 0.0, 1.0, 0.0, 0.0, 0.0, 0.0, 1.0, 0.0, 0.0, 0.8250000000000001, 0.0, 1.0]}, {"name": "needle_plate", "mesh": 10, "matrix": [1.0, 0.0, 0.0, 0.0, 0.0, 1.0, 0.0, 0.0, 0.0, 0.0, 1.0, 0.0, -0.19, 0.8520000000000001, 0.0, 1.0]}, {"name": "slide_plate", "mesh": 11, "matrix": [1.0, 0.0, 0.0, 0.0, 0.0, 1.0, 0.0, 0.0, 0.0, 0.0, 1.0, 0.0, -0.09, 0.8520000000000001, 0.04, 1.0]}, {"name": "pillar", "mesh": 12, "matrix": [1.0, 0.0, 0.0, 0.0, 0.0, 1.0, 0.0, 0.0, 0.0, 0.0, 1.0, 0.0, 0.105, 0.9450000000000001, 0.0, 1.0]}, {"name": "arm", "mesh": 13, "matrix": [1.0, 0.0, 0.0, 0.0, 0.0, 1.0, 0.0, 0.0, 0.0, 0.0, 1.0, 0.0, -0.005, 1.045, 0.0, 1.0]}, {"name": "head", "mesh": 14, "matrix": [1.0, 0.0, 0.0, 0.0, 0.0, 1.0, 0.0, 0.0, 0.0, 0.0, 1.0, 0.0, -0.16, 0.9925, 0.0, 1.0]}, {"name": "side_cover", "mesh": 15, "matrix": [1.0, 0.0, 0.0, 0.0, 0.0, 1.0, 0.0, 0.0, 0.0, 0.0, 1.0, 0.0, 0.215, 0.9850000000000001, -0.005, 1.0]}, {"name": "side_cover_top", "mesh": 16, "matrix": [1.0, 0.0, 0.0, 0.0, 0.0, 1.0, 0.0, 0.0, 0.0, 0.0, 1.0, 0.0, 0.215, 1.04, -0.005, 1.0]}, {"name": "cover_slot", "mesh": 17, "matrix": [1.0, 0.0, 0.0, 0.0, 0.0, 1.0, 0.0, 0.0, 0.0, 0.0, 1.0, 0.0, 0.215, 1.05, 0.052, 1.0]}, {"name": "handwheel", "mesh": 18, "matrix": [6.123233995736766e-17, 0.0, -1.0, 0.0, 0.0, 1.0, 0.0, 0.0, 1.0, 0.0, 6.123233995736766e-17, 0.0, 0.27, 1.0, 0.0, 1.0]}, {"name": "handwheel_hub", "mesh": 19, "matrix": [6.123233995736766e-17, 0.0, -1.0, 0.0, 0.0, 1.0, 0.0, 0.0, 1.0, 0.0, 6.123233995736766e-17, 0.0, 0.275, 1.0, 0.0, 1.0]}, {"name": "stitch_dial", "mesh": 20, "matrix": [1.0, 0.0, 0.0, 0.0, 0.0, 1.0, 0.0, 0.0, 0.0, 0.0, 1.0, 0.0, 0.145, 1.0, 0.085, 1.0]}, {"name": "stitch_dial_cap", "mesh": 21, "matrix": [1.0, 0.0, 0.0, 0.0, 0.0, 1.0, 0.0, 0.0, 0.0, 0.0, 1.0, 0.0, 0.145, 1.0, 0.085, 1.0]}, {"name": "reverse_lever", "mesh": 22, "matrix": [1.0, 0.0, 0.0, 0.0, 0.0, 1.0, 0.0, 0.0, 0.0, 0.0, 1.0, 0.0, 0.14, 0.9, 0.076, 1.0]}, {"name": "nameplate", "mesh": 23, "matrix": [1.0, 0.0, 0.0, 0.0, 0.0, 1.0, 0.0, 0.0, 0.0, 0.0, 1.0, 0.0, -0.055, 1.05, 0.0715, 1.0]}, {"name": "warning_label", "mesh": 24, "matrix": [1.0, 0.0, 0.0, 0.0, 0.0, 1.0, 0.0, 0.0, 0.0, 0.0, 1.0, 0.0, 0.075, 0.9650000000000001, 0.0715, 1.0]}, {"name": "model_plate", "mesh": 25, "matrix": [1.0, 0.0, 0.0, 0.0, 0.0, 1.0, 0.0, 0.0, 0.0, 0.0, 1.0, 0.0, 0.115, 0.875, 0.0715, 1.0]}, {"name": "take_up_cover", "mesh": 26, "matrix": [1.0, 0.0, 0.0, 0.0, 0.0, 1.0, 0.0, 0.0, 0.0, 0.0, 1.0, 0.0, -0.215, 0.99, 0.067, 1.0]}, {"name": "thread_lever", "mesh": 27, "matrix": [6.123233995736766e-17, 0.0, -1.0, 0.0, 0.0, 1.0, 0.0, 0.0, 1.0, 0.0, 6.123233995736766e-17, 0.0, -0.15, 1.068, 0.07, 1.0]}, {"name": "tension_dial", "mesh": 28, "matrix": [1.0, 0.0, 0.0, 0.0, 0.0, 1.0, 0.0, 0.0, 0.0, 0.0, 1.0, 0.0, -0.185, 0.9400000000000001, 0.075, 1.0]}, {"name": "tension_dial_cap", "mesh": 29, "matrix": [1.0, 0.0, 0.0, 0.0, 0.0, 1.0, 0.0, 0.0, 0.0, 0.0, 1.0, 0.0, -0.185, 0.9400000000000001, 0.075, 1.0]}, {"name": "needle_bar", "mesh": 30, "matrix": [1.0, 0.0, 0.0, 0.0, 0.0, 6.123233995736766e-17, -1.0, 0.0, 0.0, 1.0, 6.123233995736766e-17, 0.0, -0.19, 0.878, 0.0, 1.0]}, {"name": "needle", "mesh": 31, "matrix": [1.0, 0.0, 0.0, 0.0, 0.0, 6.123233995736766e-17, -1.0, 0.0, 0.0, 1.0, 6.123233995736766e-17, 0.0, -0.19, 0.8680000000000001, 0.0, 1.0]}, {"name": "presser_bar", "mesh": 32, "matrix": [1.0, 0.0, 0.0, 0.0, 0.0, 6.123233995736766e-17, -1.0, 0.0, 0.0, 1.0, 6.123233995736766e-17, 0.0, -0.175, 0.878, 0.0, 1.0]}, {"name": "presser_foot", "mesh": 33, "matrix": [1.0, 0.0, 0.0, 0.0, 0.0, 1.0, 0.0, 0.0, 0.0, 0.0, 1.0, 0.0, -0.183, 0.8560000000000001, 0.0, 1.0]}, {"name": "stand_pole", "mesh": 34, "matrix": [1.0, 0.0, 0.0, 0.0, 0.0, 6.123233995736766e-17, -1.0, 0.0, 0.0, 1.0, 6.123233995736766e-17, 0.0, 0.3, 0.9750000000000001, -0.22, 1.0]}, {"name": "stand_bar", "mesh": 35, "matrix": [1.0, 0.0, 0.0, 0.0, 0.0, 1.0, 0.0, 0.0, 0.0, 0.0, 1.0, 0.0, 0.3, 1.15, -0.22, 1.0]}, {"name": "spool_pin_0", "mesh": 36, "matrix": [1.0, 0.0, 0.0, 0.0, 0.0, 6.123233995736766e-17, -1.0, 0.0, 0.0, 1.0, 6.123233995736766e-17, 0.0, 0.25, 1.195, -0.22, 1.0]}, {"name": "thread_spool_0", "mesh": 37, "matrix": [1.0, 0.0, 0.0, 0.0, 0.0, 6.123233995736766e-17, -1.0, 0.0, 0.0, 1.0, 6.123233995736766e-17, 0.0, 0.25, 1.205, -0.22, 1.0]}, {"name": "spool_pin_1", "mesh": 38, "matrix": [1.0, 0.0, 0.0, 0.0, 0.0, 6.123233995736766e-17, -1.0, 0.0, 0.0, 1.0, 6.123233995736766e-17, 0.0, 0.35, 1.195, -0.22, 1.0]}, {"name": "thread_spool_1", "mesh": 39, "matrix": [1.0, 0.0, 0.0, 0.0, 0.0, 6.123233995736766e-17, -1.0, 0.0, 0.0, 1.0, 6.123233995736766e-17, 0.0, 0.35, 1.205, -0.22, 1.0]}, {"name": "spool_pad", "mesh": 40, "matrix": [1.0, 0.0, 0.0, 0.0, 0.0, 6.123233995736766e-17, -1.0, 0.0, 0.0, 1.0, 6.123233995736766e-17, 0.0, 0.02, 1.0915, -0.03, 1.0]}, {"name": "spool_pin_top", "mesh": 41, "matrix": [1.0, 0.0, 0.0, 0.0, 0.0, 6.123233995736766e-17, -1.0, 0.0, 0.0, 1.0, 6.123233995736766e-17, 0.0, 0.02, 1.12, -0.03, 1.0]}, {"name": "thread_spool_top", "mesh": 42, "matrix": [1.0, 0.0, 0.0, 0.0, 0.0, 6.123233995736766e-17, -1.0, 0.0, 0.0, 1.0, 6.123233995736766e-17, 0.0, 0.02, 1.125, -0.03, 1.0]}, {"name": "thread_spool_top_flange_a", "mesh": 43, "matrix": [1.0, 0.0, 0.0, 0.0, 0.0, 6.123233995736766e-17, -1.0, 0.0, 0.0, 1.0, 6.123233995736766e-17, 0.0, 0.02, 1.1, -0.03, 1.0]}, {"name": "thread_spool_top_flange_b", "mesh": 44, "matrix": [1.0, 0.0, 0.0, 0.0, 0.0, 6.123233995736766e-17, -1.0, 0.0, 0.0, 1.0, 6.123233995736766e-17, 0.0, 0.02, 1.15, -0.03, 1.0]}, {"name": "bwinder_base", "mesh": 45, "matrix": [1.0, 0.0, 0.0, 0.0, 0.0, 1.0, 0.0, 0.0, 0.0, 0.0, 1.0, 0.0, 0.15, 1.096, -0.035, 1.0]}, {"name": "bwinder_spindle", "mesh": 46, "matrix": [1.0, 0.0, 0.0, 0.0, 0.0, 6.123233995736766e-17, -1.0, 0.0, 0.0, 1.0, 6.123233995736766e-17, 0.0, 0.15, 1.115, -0.035, 1.0]}, {"name": "bwinder_bobbin", "mesh": 47, "matrix": [1.0, 0.0, 0.0, 0.0, 0.0, 6.123233995736766e-17, -1.0, 0.0, 0.0, 1.0, 6.123233995736766e-17, 0.0, 0.15, 1.116, -0.035, 1.0]}, {"name": "bwinder_thread", "mesh": 48, "matrix": [1.0, 0.0, 0.0, 0.0, 0.0, 6.123233995736766e-17, -1.0, 0.0, 0.0, 1.0, 6.123233995736766e-17, 0.0, 0.15, 1.116, -0.035, 1.0]}, {"name": "bwinder_tire", "mesh": 49, "matrix": [1.0, 0.0, 0.0, 0.0, 0.0, 6.123233995736766e-17, -1.0, 0.0, 0.0, 1.0, 6.123233995736766e-17, 0.0, 0.123, 1.106, -0.035, 1.0]}, {"name": "takeup_slot", "mesh": 50, "matrix": [1.0, 0.0, 0.0, 0.0, 0.0, 1.0, 0.0, 0.0, 0.0, 0.0, 1.0, 0.0, -0.125, 1.0150000000000001, 0.066, 1.0]}, {"name": "takeup_lever", "mesh": 51, "matrix": [1.0, 0.0, 0.0, 0.0, 0.0, 1.0, 0.0, 0.0, 0.0, 0.0, 1.0, 0.0, -0.125, 1.04, 0.068, 1.0]}, {"name": "tension_pre_knob", "mesh": 52, "matrix": [1.0, 0.0, 0.0, 0.0, 0.0, 6.123233995736766e-17, -1.0, 0.0, 0.0, 1.0, 6.123233995736766e-17, 0.0, -0.15, 1.11, -0.02, 1.0]}, {"name": "tension_pre_cap", "mesh": 53, "matrix": [1.0, 0.0, 0.0, 0.0, 0.0, 6.123233995736766e-17, -1.0, 0.0, 0.0, 1.0, 6.123233995736766e-17, 0.0, -0.15, 1.123, -0.02, 1.0]}, {"name": "stitch_scale", "mesh": 54, "matrix": [1.0, 0.0, 0.0, 0.0, 0.0, 6.123233995736766e-17, -1.0, 0.0, 0.0, 1.0, 6.123233995736766e-17, 0.0, 0.145, 1.0, 0.0712, 1.0]}, {"name": "needle_clamp", "mesh": 55, "matrix": [1.0, 0.0, 0.0, 0.0, 0.0, 6.123233995736766e-17, -1.0, 0.0, 0.0, 1.0, 6.123233995736766e-17, 0.0, -0.19, 0.8660000000000001, 0.0, 1.0]}, {"name": "needle_hole", "mesh": 56, "matrix": [1.0, 0.0, 0.0, 0.0, 0.0, 1.0, 0.0, 0.0, 0.0, 0.0, 1.0, 0.0, -0.19, 0.8543000000000001, 0.0, 1.0]}, {"name": "presser_ankle", "mesh": 57, "matrix": [1.0, 0.0, 0.0, 0.0, 0.0, 1.0, 0.0, 0.0, 0.0, 0.0, 1.0, 0.0, -0.183, 0.8640000000000001, 0.0, 1.0]}, {"name": "presser_toe_a", "mesh": 58, "matrix": [1.0, 0.0, 0.0, 0.0, 0.0, 1.0, 0.0, 0.0, 0.0, 0.0, 1.0, 0.0, -0.196, 0.8535, 0.005, 1.0]}, {"name": "presser_toe_b", "mesh": 59, "matrix": [1.0, 0.0, 0.0, 0.0, 0.0, 1.0, 0.0, 0.0, 0.0, 0.0, 1.0, 0.0, -0.196, 0.8535, -0.005, 1.0]}, {"name": "presser_screw", "mesh": 60, "matrix": [1.0, 0.0, 0.0, 0.0, 0.0, 6.123233995736766e-17, -1.0, 0.0, 0.0, 1.0, 6.123233995736766e-17, 0.0, -0.12, 1.106, 0.02, 1.0]}, {"name": "feeddog_slot_a", "mesh": 61, "matrix": [1.0, 0.0, 0.0, 0.0, 0.0, 1.0, 0.0, 0.0, 0.0, 0.0, 1.0, 0.0, -0.19, 0.8541000000000001, -0.012, 1.0]}, {"name": "feeddog_slot_b", "mesh": 62, "matrix": [1.0, 0.0, 0.0, 0.0, 0.0, 1.0, 0.0, 0.0, 0.0, 0.0, 1.0, 0.0, -0.19, 0.8541000000000001, 0.012, 1.0]}, {"name": "feeddog_tooth_00", "mesh": 63, "matrix": [1.0, 0.0, 0.0, 0.0, 0.0, 1.0, 0.0, 0.0, 0.0, 0.0, 1.0, 0.0, -0.203, 0.8545, -0.012, 1.0]}, {"name": "feeddog_tooth_01", "mesh": 64, "matrix": [1.0, 0.0, 0.0, 0.0, 0.0, 1.0, 0.0, 0.0, 0.0, 0.0, 1.0, 0.0, -0.1965, 0.8545, -0.012, 1.0]}, {"name": "feeddog_tooth_02", "mesh": 65, "matrix": [1.0, 0.0, 0.0, 0.0, 0.0, 1.0, 0.0, 0.0, 0.0, 0.0, 1.0, 0.0, -0.19, 0.8545, -0.012, 1.0]}, {"name": "feeddog_tooth_03", "mesh": 66, "matrix": [1.0, 0.0, 0.0, 0.0, 0.0, 1.0, 0.0, 0.0, 0.0, 0.0, 1.0, 0.0, -0.1835, 0.8545, -0.012, 1.0]}, {"name": "feeddog_tooth_04", "mesh": 67, "matrix": [1.0, 0.0, 0.0, 0.0, 0.0, 1.0, 0.0, 0.0, 0.0, 0.0, 1.0, 0.0, -0.177, 0.8545, -0.012, 1.0]}, {"name": "feeddog_tooth_10", "mesh": 68, "matrix": [1.0, 0.0, 0.0, 0.0, 0.0, 1.0, 0.0, 0.0, 0.0, 0.0, 1.0, 0.0, -0.203, 0.8545, 0.012, 1.0]}, {"name": "feeddog_tooth_11", "mesh": 69, "matrix": [1.0, 0.0, 0.0, 0.0, 0.0, 1.0, 0.0, 0.0, 0.0, 0.0, 1.0, 0.0, -0.1965, 0.8545, 0.012, 1.0]}, {"name": "feeddog_tooth_12", "mesh": 70, "matrix": [1.0, 0.0, 0.0, 0.0, 0.0, 1.0, 0.0, 0.0, 0.0, 0.0, 1.0, 0.0, -0.19, 0.8545, 0.012, 1.0]}, {"name": "feeddog_tooth_13", "mesh": 71, "matrix": [1.0, 0.0, 0.0, 0.0, 0.0, 1.0, 0.0, 0.0, 0.0, 0.0, 1.0, 0.0, -0.1835, 0.8545, 0.012, 1.0]}, {"name": "feeddog_tooth_14", "mesh": 72, "matrix": [1.0, 0.0, 0.0, 0.0, 0.0, 1.0, 0.0, 0.0, 0.0, 0.0, 1.0, 0.0, -0.177, 0.8545, 0.012, 1.0]}, {"name": "handwheel_recess", "mesh": 73, "matrix": [6.123233995736766e-17, 0.0, -1.0, 0.0, 0.0, 1.0, 0.0, 0.0, 1.0, 0.0, 6.123233995736766e-17, 0.0, 0.286, 1.0, 0.0, 1.0]}, {"name": "handwheel_mark", "mesh": 74, "matrix": [1.0, 0.0, 0.0, 0.0, 0.0, 1.0, 0.0, 0.0, 0.0, 0.0, 1.0, 0.0, 0.286, 1.06, 0.0, 1.0]}, {"name": "pedal_hinge", "mesh": 75, "matrix": [6.123233995736766e-17, 0.0, -1.0, 0.0, 0.0, 1.0, 0.0, 0.0, 1.0, 0.0, 6.123233995736766e-17, 0.0, 0.1, 0.04, -0.09, 1.0]}, {"name": "pedal_rod", "mesh": 76, "matrix": [1.0, 0.0, 0.0, 0.0, 0.0, 1.0, 0.0, 0.0, 0.0, 0.0, 1.0, 0.0, 0.1, 0.34, -0.09, 1.0]}, {"name": "lifter_pivot", "mesh": 77, "matrix": [6.123233995736766e-17, 0.0, -1.0, 0.0, 0.0, 1.0, 0.0, 0.0, 1.0, 0.0, 6.123233995736766e-17, 0.0, -0.16, 0.9600000000000001, -0.075, 1.0]}, {"name": "lifter_lever", "mesh": 78, "matrix": [1.0, 0.0, 0.0, 0.0, 0.0, 1.0, 0.0, 0.0, 0.0, 0.0, 1.0, 0.0, -0.16, 0.9600000000000001, -0.11, 1.0]}, {"name": "lifter_knob", "mesh": 79, "matrix": [1.0, 0.0, 0.0, 0.0, 0.0, 1.0, 0.0, 0.0, 0.0, 0.0, 1.0, 0.0, -0.16, 0.9600000000000001, -0.148, 1.0]}, {"name": "bobbin_race", "mesh": 80, "matrix": [1.0, 0.0, 0.0, 0.0, 0.0, 1.0, 0.0, 0.0, 0.0, 0.0, 1.0, 0.0, -0.19, 0.8250000000000001, -0.011, 1.0]}, {"name": "bobbin_case", "mesh": 81, "matrix": [1.0, 0.0, 0.0, 0.0, 0.0, 1.0, 0.0, 0.0, 0.0, 0.0, 1.0, 0.0, -0.19, 0.8250000000000001, -0.007, 1.0]}, {"name": "bobbin_thread", "mesh": 82, "matrix": [1.0, 0.0, 0.0, 0.0, 0.0, 1.0, 0.0, 0.0, 0.0, 0.0, 1.0, 0.0, -0.19, 0.8250000000000001, 0.0, 1.0]}, {"name": "bobbin_spool_flange_a", "mesh": 83, "matrix": [1.0, 0.0, 0.0, 0.0, 0.0, 1.0, 0.0, 0.0, 0.0, 0.0, 1.0, 0.0, -0.19, 0.8250000000000001, -0.006, 1.0]}, {"name": "bobbin_spool_flange_b", "mesh": 84, "matrix": [1.0, 0.0, 0.0, 0.0, 0.0, 1.0, 0.0, 0.0, 0.0, 0.0, 1.0, 0.0, -0.19, 0.8250000000000001, 0.006, 1.0]}, {"name": "screw_0", "mesh": 85, "matrix": [1.0, 0.0, 0.0, 0.0, 0.0, 1.0, 0.0, 0.0, 0.0, 0.0, 1.0, 0.0, -0.205, 1.09, 0.0665, 1.0]}, {"name": "screw_1", "mesh": 86, "matrix": [1.0, 0.0, 0.0, 0.0, 0.0, 1.0, 0.0, 0.0, 0.0, 0.0, 1.0, 0.0, -0.115, 1.09, 0.0665, 1.0]}, {"name": "screw_2", "mesh": 87, "matrix": [1.0, 0.0, 0.0, 0.0, 0.0, 1.0, 0.0, 0.0, 0.0, 0.0, 1.0, 0.0, -0.205, 0.9, 0.0665, 1.0]}, {"name": "screw_3", "mesh": 88, "matrix": [1.0, 0.0, 0.0, 0.0, 0.0, 1.0, 0.0, 0.0, 0.0, 0.0, 1.0, 0.0, -0.115, 0.9, 0.0665, 1.0]}, {"name": "screw_4", "mesh": 89, "matrix": [1.0, 0.0, 0.0, 0.0, 0.0, 1.0, 0.0, 0.0, 0.0, 0.0, 1.0, 0.0, -0.08, 1.08, 0.0715, 1.0]}, {"name": "screw_5", "mesh": 90, "matrix": [1.0, 0.0, 0.0, 0.0, 0.0, 1.0, 0.0, 0.0, 0.0, 0.0, 1.0, 0.0, 0.15, 1.08, 0.0715, 1.0]}, {"name": "screw_6", "mesh": 91, "matrix": [1.0, 0.0, 0.0, 0.0, 0.0, 1.0, 0.0, 0.0, 0.0, 0.0, 1.0, 0.0, 0.05, 0.8600000000000001, 0.0715, 1.0]}, {"name": "screw_7", "mesh": 92, "matrix": [1.0, 0.0, 0.0, 0.0, 0.0, 1.0, 0.0, 0.0, 0.0, 0.0, 1.0, 0.0, 0.17, 0.8600000000000001, 0.0715, 1.0]}, {"name": "guide_post_0", "mesh": 93, "matrix": [1.0, 0.0, 0.0, 0.0, 0.0, 6.123233995736766e-17, -1.0, 0.0, 0.0, 1.0, 6.123233995736766e-17, 0.0, -0.06, 1.1, -0.03, 1.0]}, {"name": "guide_disc_0", "mesh": 94, "matrix": [1.0, 0.0, 0.0, 0.0, 0.0, 1.0, 0.0, 0.0, 0.0, 0.0, 1.0, 0.0, -0.06, 1.1, -0.03, 1.0]}, {"name": "guide_post_1", "mesh": 95, "matrix": [1.0, 0.0, 0.0, 0.0, 0.0, 1.0, 0.0, 0.0, 0.0, 0.0, 1.0, 0.0, -0.2, 1.085, 0.075, 1.0]}, {"name": "guide_disc_1", "mesh": 96, "matrix": [1.0, 0.0, 0.0, 0.0, 0.0, 1.0, 0.0, 0.0, 0.0, 0.0, 1.0, 0.0, -0.2, 1.085, 0.08299999999999999, 1.0]}, {"name": "guide_post_2", "mesh": 97, "matrix": [1.0, 0.0, 0.0, 0.0, 0.0, 1.0, 0.0, 0.0, 0.0, 0.0, 1.0, 0.0, -0.2, 0.92, 0.075, 1.0]}, {"name": "guide_disc_2", "mesh": 98, "matrix": [1.0, 0.0, 0.0, 0.0, 0.0, 1.0, 0.0, 0.0, 0.0, 0.0, 1.0, 0.0, -0.2, 0.92, 0.08299999999999999, 1.0]}, {"name": "guide_post_3", "mesh": 99, "matrix": [1.0, 0.0, 0.0, 0.0, 0.0, 1.0, 0.0, 0.0, 0.0, 0.0, 1.0, 0.0, -0.19, 0.89, 0.07, 1.0]}, {"name": "guide_disc_3", "mesh": 100, "matrix": [1.0, 0.0, 0.0, 0.0, 0.0, 1.0, 0.0, 0.0, 0.0, 0.0, 1.0, 0.0, -0.19, 0.89, 0.07800000000000001, 1.0]}, {"name": "thread_seg_0", "mesh": 101, "matrix": [0.0, 0.0, 1.0, 0.0, -0.44721359549995626, 0.8944271909999167, 0.0, 0.0, -0.8944271909999166, -0.44721359549995626, 0.0, 0.0, -0.019999999999999997, 1.13, -0.03, 1.0]}, {"name": "thread_seg_1", "mesh": 102, "matrix": [0.10976425998969035, -0.006060830046393439, 0.9939391699536065, 0.0, 0.10976425998969046, 0.9939391699536065, -0.006060830046393439, 0.0, -0.9878783399072133, 0.10976425998969046, 0.10976425998969035, 0.0, -0.105, 1.1150000000000002, -0.025, 1.0]}, {"name": "thread_seg_2", "mesh": 103, "matrix": [0.84884284388008, 0.1795664441047065, 0.49721395650682376, 0.0, -0.3031581585286012, 0.9358691271054617, 0.17956644410470649, 0.0, -0.43308308361228587, -0.3031581585286012, 0.84884284388008, 0.0, -0.175, 1.1025, 0.028999999999999998, 1.0]}, {"name": "thread_seg_3", "mesh": 104, "matrix": [0.0791807582464896, -0.07004998908030727, -0.9943960008735754, 0.0, 0.9897594780811197, 0.12437513649615932, 0.07004998908030728, 0.0, 0.11877113736973466, -0.9897594780811197, 0.0791807582464896, 0.0, -0.1925, 1.0225, 0.08299999999999999, 1.0]}, {"name": "thread_seg_4", "mesh": 105, "matrix": [-0.09950371902099892, -0.04959725364603157, -0.993800343294246, 0.0, -0.7960297521679913, 0.6032219708317474, 0.04959725364603157, 0.0, 0.5970223141259936, 0.7960297521679913, -0.09950371902099892, 0.0, -0.155, 1.0, 0.08299999999999999, 1.0]}, {"name": "thread_seg_5", "mesh": 106, "matrix": [0.0, 0.0, 1.0, 0.0, -0.8479983040050878, 0.5299989400031802, 0.0, 0.0, -0.5299989400031799, -0.8479983040050878, 0.0, 0.0, -0.1625, 0.98, 0.078, 1.0]}, {"name": "thread_seg_6", "mesh": 107, "matrix": [-0.18641092980036, 0.1325605994229615, -0.9734878801154077, 0.0, 0.9320546490018, 0.3371970028851925, -0.1325605994229615, 0.0, 0.31068488300060015, -0.9320546490018, -0.18641092980036, 0.0, -0.195, 0.905, 0.075, 1.0]}, {"name": "thread_seg_7", "mesh": 108, "matrix": [-0.9042486467459913, 0.38611987381703416, -0.1823343848580435, 0.0, 0.42700630540782825, 0.8176656151419565, -0.38611987381703416, 0.0, 0.0, -0.42700630540782825, -0.9042486467459913, 0.0, -0.19, 0.873, 0.036, 1.0]}], "buffers": [{"uri": "data:application/octet-stream;base64,", "byteLength": 144}, {"uri": "data:application/octet-stream;base64,", "byteLength": 96}, {"uri": "data:application/octet-stream;base64,", "byteLength": 96}, {"uri": "data:application/octet-stream;base64,", "byteLength": 96}, {"uri": "data:application/octet-stream;base64,", "byteLength": 96}, {"uri": "data:application/octet-stream;base64,", "byteLength": 96}, {"uri": "data:application/octet-stream;base64,", "byteLength": 96}, {"uri": "data:application/octet-stream;base64,", "byteLength": 96}, {"uri": "data:application/octet-stream;base64,", "byteLength": 96}, {"uri": "data:application/octet-stream;base64,", "byteLength": 96}, {"uri": "data:application/octet-stream;base64,", "byteLength": 96}, {"uri": "data:application/octet-stream;base64,", "byteLength": 96}, {"uri": "data:application/octet-stream;base64,", "byteLength": 96}, {"uri": "data:application/octet-stream;base64,", "byteLength": 1920}, {"uri": "data:application/octet-stream;base64,", "byteLength": 984}, {"uri": "data:application/octet-stream;base64,", "byteLength": 96}, {"uri": "data:application/octet-stream;base64,", "byteLength": 984}, {"uri": "data:application/octet-stream;base64,", "byteLength": 984}, {"uri": "data:application/octet-stream;base64,", "byteLength": 984}, {"uri": "data:application/octet-stream;base64,", "byteLength": 984}, {"uri": "data:application/octet-stream;base64,", "byteLength": 96}, {"uri": "data:application/octet-stream;base64,", "byteLength": 24}, {"uri": "data:application/octet-stream;base64,", "byteLength": 48}, {"uri": "data:application/octet-stream;base64,", "byteLength": 6396}, {"uri": "data:application/octet-stream;base64,", "byteLength": 32}, {"uri": "data:application/octet-stream;base64,", "byteLength": 48}, {"uri": "data:application/octet-stream;base64,", "byteLength": 1384}, {"uri": "data:application/octet-stream;base64,", "byteLength": 48}, {"uri": "data:application/octet-stream;base64,", "byteLength": 5520}, {"uri": "data:application/octet-stream;base64,", "byteLength": 96}, {"uri": "data:application/octet-stream;base64,", "byteLength": 984}, {"uri": "data:application/octet-stream;base64,", "byteLength": 984}, {"uri": "data:application/octet-stream;base64,", "byteLength": 984}, {"uri": "data:application/octet-stream;base64,", "byteLength": 984}, {"uri": "data:application/octet-stream;base64,", "byteLength": 984}, {"uri": "data:application/octet-stream;base64,", "byteLength": 96}, {"uri": "data:application/octet-stream;base64,", "byteLength": 984}, {"uri": "data:application/octet-stream;base64,", "byteLength": 96}, {"uri": "data:application/octet-stream;base64,", "byteLength": 984}, {"uri": "data:application/octet-stream;base64,", "byteLength": 984}, {"uri": "data:application/octet-stream;base64,", "byteLength": 984}, {"uri": "data:application/octet-stream;base64,", "byteLength": 984}, {"uri": "data:application/octet-stream;base64,", "byteLength": 984}, {"uri": "data:application/octet-stream;base64,", "byteLength": 984}, {"uri": "data:application/octet-stream;base64,", "byteLength": 96}, {"uri": "data:application/octet-stream;base64,", "byteLength": 984}, {"uri": "data:application/octet-stream;base64,", "byteLength": 984}, {"uri": "data:application/octet-stream;base64,", "byteLength": 984}, {"uri": "data:application/octet-stream;base64,", "byteLength": 96}, {"uri": "data:application/octet-stream;base64,", "byteLength": 96}, {"uri": "data:application/octet-stream;base64,", "byteLength": 984}, {"uri": "data:application/octet-stream;base64,", "byteLength": 984}, {"uri": "data:application/octet-stream;base64,", "byteLength": 984}, {"uri": "data:application/octet-stream;base64,", "byteLength": 984}, {"uri": "data:application/octet-stream;base64,", "byteLength": 96}, {"uri": "data:application/octet-stream;base64,", "byteLength": 96}, {"uri": "data:application/octet-stream;base64,", "byteLength": 96}, {"uri": "data:application/octet-stream;base64,", "byteLength": 984}, {"uri": "data:application/octet-stream;base64,", "byteLength": 96}, {"uri": "data:application/octet-stream;base64,", "byteLength": 96}, {"uri": "data:application/octet-stream;base64,", "byteLength": 984}, {"uri": "data:application/octet-stream;base64,", "byteLength": 96}, {"uri": "data:application/octet-stream;base64,", "byteLength": 984}, {"uri": "data:application/octet-stream;base64,", "byteLength": 96}, {"uri": "data:application/octet-stream;base64,", "byteLength": 984}, {"uri": "data:application/octet-stream;base64,", "byteLength": 96}, {"uri": "data:application/octet-stream;base64,", "byteLength": 984}, {"uri": "data:application/octet-stream;base64,", "byteLength": 984}, {"uri": "data:application/octet-stream;base64,", "byteLength": 984}, {"uri": "data:application/octet-stream;base64,", "byteLength": 984}, {"uri": "data:application/octet-stream;base64,", "byteLength": 984}, {"uri": "data:application/octet-stream;base64,", "byteLength": 984}, {"uri": "data:application/octet-stream;base64,", "byteLength": 984}, {"uri": "data:application/octet-stream;base64,", "byteLength": 984}, {"uri": "data:application/octet-stream;base64,", "byteLength": 384}, {"uri": "data:application/octet-stream;base64,", "byteLength": 216}, {"uri": "data:application/octet-stream;base64,", "byteLength": 216}, {"uri": "data:application/octet-stream;base64,", "byteLength": 216}, {"uri": "data:application/octet-stream;base64,", "byteLength": 216}, {"uri": "data:application/octet-stream;base64,", "byteLength": 216}, {"uri": "data:application/octet-stream;base64,", "byteLength": 216}, {"uri": "data:application/octet-stream;base64,", "byteLength": 216}, {"uri": "data:application/octet-stream;base64,", "byteLength": 216}], "bufferViews": [{"buffer": 0, "byteOffset": 0, "byteLength": 144}, {"buffer": 1, "byteOffset": 0, "byteLength": 96}, {"buffer": 2, "byteOffset": 0, "byteLength": 96}, {"buffer": 3, "byteOffset": 0, "byteLength": 96}, {"buffer": 4, "byteOffset": 0, "byteLength": 96}, {"buffer": 5, "byteOffset": 0, "byteLength": 96}, {"buffer": 6, "byteOffset": 0, "byteLength": 96}, {"buffer": 7, "byteOffset": 0, "byteLength": 96}, {"buffer": 8, "byteOffset": 0, "byteLength": 96}, {"buffer": 9, "byteOffset": 0, "byteLength": 96}, {"buffer": 10, "byteOffset": 0, "byteLength": 96}, {"buffer": 11, "byteOffset": 0, "byteLength": 96}, {"buffer": 12, "byteOffset": 0, "byteLength": 96}, {"buffer": 13, "byteOffset": 0, "byteLength": 1920}, {"buffer": 14, "byteOffset": 0, "byteLength": 984}, {"buffer": 15, "byteOffset": 0, "byteLength": 96}, {"buffer": 16, "byteOffset": 0, "byteLength": 984}, {"buffer": 17, "byteOffset": 0, "byteLength": 984}, {"buffer": 18, "byteOffset": 0, "byteLength": 984}, {"buffer": 19, "byteOffset": 0, "byteLength": 984}, {"buffer": 20, "byteOffset": 0, "byteLength": 96}, {"buffer": 21, "byteOffset": 0, "byteLength": 24}, {"buffer": 22, "byteOffset": 0, "byteLength": 48}, {"buffer": 23, "byteOffset": 0, "byteLength": 6396}, {"buffer": 24, "byteOffset": 0, "byteLength": 32}, {"buffer": 25, "byteOffset": 0, "byteLength": 48}, {"buffer": 26, "byteOffset": 0, "byteLength": 1384}, {"buffer": 27, "byteOffset": 0, "byteLength": 48}, {"buffer": 28, "byteOffset": 0, "byteLength": 5520}, {"buffer": 29, "byteOffset": 0, "byteLength": 96}, {"buffer": 30, "byteOffset": 0, "byteLength": 984}, {"buffer": 31, "byteOffset": 0, "byteLength": 984}, {"buffer": 32, "byteOffset": 0, "byteLength": 984}, {"buffer": 33, "byteOffset": 0, "byteLength": 984}, {"buffer": 34, "byteOffset": 0, "byteLength": 984}, {"buffer": 35, "byteOffset": 0, "byteLength": 96}, {"buffer": 36, "byteOffset": 0, "byteLength": 984}, {"buffer": 37, "byteOffset": 0, "byteLength": 96}, {"buffer": 38, "byteOffset": 0, "byteLength": 984}, {"buffer": 39, "byteOffset": 0, "byteLength": 984}, {"buffer": 40, "byteOffset": 0, "byteLength": 984}, {"buffer": 41, "byteOffset": 0, "byteLength": 984}, {"buffer": 42, "byteOffset": 0, "byteLength": 984}, {"buffer": 43, "byteOffset": 0, "byteLength": 984}, {"buffer": 44, "byteOffset": 0, "byteLength": 96}, {"buffer": 45, "byteOffset": 0, "byteLength": 984}, {"buffer": 46, "byteOffset": 0, "byteLength": 984}, {"buffer": 47, "byteOffset": 0, "byteLength": 984}, {"buffer": 48, "byteOffset": 0, "byteLength": 96}, {"buffer": 49, "byteOffset": 0, "byteLength": 96}, {"buffer": 50, "byteOffset": 0, "byteLength": 984}, {"buffer": 51, "byteOffset": 0, "byteLength": 984}, {"buffer": 52, "byteOffset": 0, "byteLength": 984}, {"buffer": 53, "byteOffset": 0, "byteLength": 984}, {"buffer": 54, "byteOffset": 0, "byteLength": 96}, {"buffer": 55, "byteOffset": 0, "byteLength": 96}, {"buffer": 56, "byteOffset": 0, "byteLength": 96}, {"buffer": 57, "byteOffset": 0, "byteLength": 984}, {"buffer": 58, "byteOffset": 0, "byteLength": 96}, {"buffer": 59, "byteOffset": 0, "byteLength": 96}, {"buffer": 60, "byteOffset": 0, "byteLength": 984}, {"buffer": 61, "byteOffset": 0, "byteLength": 96}, {"buffer": 62, "byteOffset": 0, "byteLength": 984}, {"buffer": 63, "byteOffset": 0, "byteLength": 96}, {"buffer": 64, "byteOffset": 0, "byteLength": 984}, {"buffer": 65, "byteOffset": 0, "byteLength": 96}, {"buffer": 66, "byteOffset": 0, "byteLength": 984}, {"buffer": 67, "byteOffset": 0, "byteLength": 984}, {"buffer": 68, "byteOffset": 0, "byteLength": 984}, {"buffer": 69, "byteOffset": 0, "byteLength": 984}, {"buffer": 70, "byteOffset": 0, "byteLength": 984}, {"buffer": 71, "byteOffset": 0, "byteLength": 984}, {"buffer": 72, "byteOffset": 0, "byteLength": 984}, {"buffer": 73, "byteOffset": 0, "byteLength": 984}, {"buffer": 74, "byteOffset": 0, "byteLength": 384}, {"buffer": 75, "byteOffset": 0, "byteLength": 216}, {"buffer": 76, "byteOffset": 0, "byteLength": 216}, {"buffer": 77, "byteOffset": 0, "byteLength": 216}, {"buffer": 78, "byteOffset": 0, "byteLength": 216}, {"buffer": 79, "byteOffset": 0, "byteLength": 216}, {"buffer": 80, "byteOffset": 0, "byteLength": 216}, {"buffer": 81, "byteOffset": 0, "byteLength": 216}, {"buffer": 82, "byteOffset": 0, "byteLength": 216}]}